#!OML:ASF F:\VICON\USERDATA\INSTALL\rory3\rory3.ASF
:FULLY-SPECIFIED
:DEGREES
1103
root 2.18019 17.9234 14.1526 6.81748 -73.2192 -356.369
lowerback 1.98751 -1.81046 -5.66216
upperback 0.76554 -2.52247 2.81071
thorax 0.0485653 -1.29407 6.14049
lowerneck -11.3457 2.47462 -11.187
upperneck 43.8355 3.56272 3.40211
head 17.9874 -0.637539 4.03204
rclavicle -2.88238e-015 1.31198e-014
rhumerus -30.4609 -10.1328 -77.3407
rradius 35.3816
rwrist 17.9285
rhand -22.3826 3.27305
rfingers 7.12502
rthumb 4.03929 -26.6684
lclavicle -2.88238e-015 1.31198e-014
lhumerus -27.2147 18.7665 75.9409
lradius 35.2619
lwrist -4.14864
lhand -16.0269 25.7469
lfingers 7.12502
lthumb 10.1742 55.4809
rfemur -17.7715 -3.20405 16.1429
rtibia 31.0159
rfoot -23.6405 -11.6163
rtoes 10.3126
lfemur -16.2587 6.40833 -22.9234
ltibia 18.6439
lfoot -6.72316 18.5411
ltoes -12.308
1104
root 2.1871 17.9292 14.1028 7.35096 -73.3801 -356.72
lowerback 2.01332 -1.80813 -5.42585
upperback 0.785069 -2.51627 2.78784
thorax 0.0416687 -1.29043 5.98201
lowerneck -11.3291 2.48374 -11.1696
upperneck 43.8889 3.54708 3.42034
head 18.0162 -0.644883 4.03617
rclavicle -1.68967e-015 -1.11319e-014
rhumerus -30.5523 -10.1603 -77.3419
rradius 35.1516
rwrist 18.0814
rhand -22.5415 3.32075
rfingers 7.12502
rthumb 3.88583 -26.6236
lclavicle -1.68967e-015 -1.11319e-014
lhumerus -27.2157 18.6315 75.9532
lradius 35.2725
lwrist -4.34287
lhand -15.9769 25.643
lfingers 7.12502
lthumb 10.2224 55.3746
rfemur -17.8068 -3.27553 16.3547
rtibia 30.5503
rfoot -23.1404 -11.3124
rtoes 11.8689
lfemur -16.5859 6.2954 -22.6447
ltibia 18.7405
lfoot -6.81852 18.8285
ltoes -12.2525
1105
root 2.19347 17.9311 14.0492 8.08386 -73.5714 -357.286
lowerback 2.07709 -1.79211 -5.1809
upperback 0.796764 -2.49342 2.78089
thorax 0.00347106 -1.27732 5.83698
lowerneck -11.3283 2.47743 -11.1194
upperneck 43.9015 3.51639 3.41076
head 18.0282 -0.652824 4.01787
rclavicle -1.32192e-014 1.90833e-014
rhumerus -30.6618 -10.0813 -77.3747
rradius 34.9718
rwrist 18.0582
rhand -22.8184 2.98266
rfingers 7.12502
rthumb 3.61846 -26.9664
lclavicle -1.32192e-014 1.90833e-014
lhumerus -27.2709 18.4522 75.9674
lradius 35.3641
lwrist -4.377
lhand -16.123 25.8632
lfingers 7.12502
lthumb 10.0815 55.6017
rfemur -17.8295 -3.22444 16.6749
rtibia 30.1423
rfoot -22.7606 -10.7087
rtoes 10.7832
lfemur -16.8972 6.04415 -22.2533
ltibia 18.8376
lfoot -6.85351 19.2535
ltoes -12.0757
1106
root 2.19775 17.9286 13.994 8.5599 -73.8475 -357.548
lowerback 2.05037 -1.77287 -5.07658
upperback 0.815093 -2.46478 2.7929
thorax 0.029345 -1.26411 5.78841
lowerneck -11.3178 2.49629 -11.2209
upperneck 43.8885 3.53739 3.48143
head 18.0092 -0.651335 4.07143
rclavicle -9.24349e-015 1.94809e-014
rhumerus -30.6687 -10.1669 -77.3213
rradius 34.6513
rwrist 18.2677
rhand -22.7684 2.8176
rfingers 7.12502
rthumb 3.66675 -27.1306
lclavicle -9.24349e-015 1.94809e-014
lhumerus -27.4092 18.4831 76.02
lradius 35.4679
lwrist -4.44198
lhand -16.3003 25.8752
lfingers 7.12502
lthumb 9.91042 55.6219
rfemur -17.9727 -2.72889 16.8321
rtibia 29.85
rfoot -22.8739 -10.1235
rtoes 11.0859
lfemur -17.1668 5.76108 -21.954
ltibia 18.8339
lfoot -6.785 19.7624
ltoes -11.8046
1107
root 2.20301 17.9257 13.938 8.226 -74.1664 -356.958
lowerback 2.02187 -1.74254 -5.30827
upperback 0.842955 -2.42702 2.78929
thorax 0.0788098 -1.24825 5.91479
lowerneck -11.3232 2.51177 -11.2981
upperneck 43.8586 3.58082 3.48101
head 17.9862 -0.644214 4.09054
rclavicle 2.94201e-014 0
rhumerus -30.6074 -10.1864 -77.2224
rradius 34.2529
rwrist 18.5015
rhand -22.3287 3.3077
rfingers 7.12502
rthumb 4.09138 -26.6328
lclavicle 2.94201e-014 0
lhumerus -27.4338 18.7024 76.1104
lradius 35.3933
lwrist -4.63308
lhand -16.2992 25.632
lfingers 7.12502
lthumb 9.91151 55.3786
rfemur -18.1909 -2.26291 16.7406
rtibia 29.5965
rfoot -23.0168 -9.85534
rtoes 12.3254
lfemur -17.4205 5.45675 -21.9313
ltibia 18.7851
lfoot -6.60508 20.3743
ltoes -11.87
